<svg id="visual" viewBox="0 0 960 350" width="960" height="350" xmlns="http://www.w3.org/2000/svg" xmlns:xlink="http://www.w3.org/1999/xlink" version="1.1"><rect x="0" y="0" width="960" height="350" fill="#fcdcbf"></rect><path d="M0 236L16 245.7C32 255.3 64 274.7 96 275.2C128 275.7 160 257.3 192 251C224 244.7 256 250.3 288 253.8C320 257.3 352 258.7 384 266.2C416 273.7 448 287.3 480 294.5C512 301.7 544 302.3 576 298C608 293.7 640 284.3 672 277.5C704 270.7 736 266.3 768 262.5C800 258.7 832 255.3 864 256.7C896 258 928 264 944 267L960 270L960 351L944 351C928 351 896 351 864 351C832 351 800 351 768 351C736 351 704 351 672 351C640 351 608 351 576 351C544 351 512 351 480 351C448 351 416 351 384 351C352 351 320 351 288 351C256 351 224 351 192 351C160 351 128 351 96 351C64 351 32 351 16 351L0 351Z" fill="#4a1400" stroke-linecap="round" stroke-linejoin="miter"></path></svg>