<svg id="visual" viewBox="0 0 960 540" width="960" height="540" xmlns="http://www.w3.org/2000/svg" xmlns:xlink="http://www.w3.org/1999/xlink" version="1.1"><rect x="0" y="0" width="960" height="540" fill="#fcdcbf"></rect><path d="M0 201L20 219C40 237 80 273 120 294.3C160 315.7 200 322.3 240 316.8C280 311.3 320 293.7 360 274.8C400 256 440 236 480 225.5C520 215 560 214 600 239.5C640 265 680 317 720 321.8C760 326.7 800 284.3 840 257.7C880 231 920 220 940 214.5L960 209L960 541L940 541C920 541 880 541 840 541C800 541 760 541 720 541C680 541 640 541 600 541C560 541 520 541 480 541C440 541 400 541 360 541C320 541 280 541 240 541C200 541 160 541 120 541C80 541 40 541 20 541L0 541Z" fill="#4a1400" stroke-linecap="round" stroke-linejoin="miter"></path></svg>