<svg id="visual" viewBox="0 0 960 540" width="960" height="540" xmlns="http://www.w3.org/2000/svg" xmlns:xlink="http://www.w3.org/1999/xlink" version="1.1"><rect x="0" y="0" width="960" height="540" fill="#fcdcbf"></rect><path d="M0 287L20 307.8C40 328.7 80 370.3 120 389C160 407.7 200 403.3 240 389C280 374.7 320 350.3 360 356.8C400 363.3 440 400.7 480 407.2C520 413.7 560 389.3 600 374.5C640 359.7 680 354.3 720 346.8C760 339.3 800 329.7 840 327.8C880 326 920 332 940 335L960 338L960 541L940 541C920 541 880 541 840 541C800 541 760 541 720 541C680 541 640 541 600 541C560 541 520 541 480 541C440 541 400 541 360 541C320 541 280 541 240 541C200 541 160 541 120 541C80 541 40 541 20 541L0 541Z" fill="#4a1400" stroke-linecap="round" stroke-linejoin="miter"></path></svg>