<svg id="visual" viewBox="0 0 900 450" width="900" height="450" xmlns="http://www.w3.org/2000/svg" xmlns:xlink="http://www.w3.org/1999/xlink" version="1.1"><rect x="0" y="0" width="900" height="450" fill="#fcdcbf"></rect><path d="M0 347L18.8 356.2C37.7 365.3 75.3 383.7 112.8 382.8C150.3 382 187.7 362 225.2 358C262.7 354 300.3 366 337.8 366.5C375.3 367 412.7 356 450.2 345.5C487.7 335 525.3 325 562.8 323.7C600.3 322.3 637.7 329.7 675.2 343.5C712.7 357.3 750.3 377.7 787.8 379.5C825.3 381.3 862.7 364.7 881.3 356.3L900 348L900 451L881.3 451C862.7 451 825.3 451 787.8 451C750.3 451 712.7 451 675.2 451C637.7 451 600.3 451 562.8 451C525.3 451 487.7 451 450.2 451C412.7 451 375.3 451 337.8 451C300.3 451 262.7 451 225.2 451C187.7 451 150.3 451 112.8 451C75.3 451 37.7 451 18.8 451L0 451Z" fill="#4a1400" stroke-linecap="round" stroke-linejoin="miter"></path></svg>