<svg id="visual" viewBox="0 0 900 600" width="900" height="600" xmlns="http://www.w3.org/2000/svg" xmlns:xlink="http://www.w3.org/1999/xlink" version="1.1"><rect x="0" y="0" width="900" height="600" fill="#FFFFFF"></rect><path d="M0 468L21.5 468.3C43 468.7 86 469.3 128.8 479.7C171.7 490 214.3 510 257.2 507.2C300 504.3 343 478.7 385.8 474C428.7 469.3 471.3 485.7 514.2 497.3C557 509 600 516 642.8 518C685.7 520 728.3 517 771.2 517.5C814 518 857 522 878.5 524L900 526L900 601L878.5 601C857 601 814 601 771.2 601C728.3 601 685.7 601 642.8 601C600 601 557 601 514.2 601C471.3 601 428.7 601 385.8 601C343 601 300 601 257.2 601C214.3 601 171.7 601 128.8 601C86 601 43 601 21.5 601L0 601Z" fill="#f7609c" stroke-linecap="round" stroke-linejoin="miter"></path></svg>